<svg width="21" height="20" viewBox="0 0 21 20" fill="none" xmlns="http://www.w3.org/2000/svg">
<path fill-rule="evenodd" clip-rule="evenodd" d="M17.6262 8.51762C17.6262 10.301 18.1031 12.0519 19.0075 13.5889L19.9828 15.2464C20.179 15.5798 19.9386 16 19.5519 16H14.8633C14.8071 16.3327 14.7135 16.6588 14.5837 16.9721C14.3576 17.518 14.0261 18.0141 13.6083 18.432C13.1904 18.8498 12.6943 19.1813 12.1483 19.4075C11.6024 19.6336 11.0172 19.75 10.4263 19.75C9.83532 19.75 9.25016 19.6336 8.70419 19.4075C8.15823 19.1813 7.66215 18.8498 7.24429 18.432C6.82643 18.0141 6.49496 17.518 6.26881 16.9721C6.13907 16.6588 6.04545 16.3327 5.98921 16H1.30056C0.913828 16 0.673503 15.5798 0.869629 15.2464L1.84493 13.5889C2.74932 12.0519 3.22623 10.301 3.22623 8.51762V6.62069C3.22623 2.96418 6.44978 0 10.4262 0C14.4027 0 17.6262 2.96418 17.6262 6.62069V8.51762ZM4.72623 6.62069C4.72623 3.90858 7.15727 1.5 10.4262 1.5C13.6952 1.5 16.1262 3.90858 16.1262 6.62069V8.51762C16.1262 10.5685 16.6747 12.582 17.7147 14.3496L17.8032 14.5H3.04924L3.13773 14.3496C4.17778 12.582 4.72623 10.5685 4.72623 8.51762V6.62069ZM7.52153 16C7.55647 16.1353 7.60091 16.2683 7.65463 16.3981C7.8054 16.762 8.02637 17.0927 8.30495 17.3713C8.58352 17.6499 8.91424 17.8709 9.27822 18.0216C9.6422 18.1724 10.0323 18.25 10.4263 18.25C10.8202 18.25 11.2103 18.1724 11.5743 18.0216C11.9383 17.8709 12.269 17.6499 12.5476 17.3713C12.8262 17.0927 13.0471 16.762 13.1979 16.3981C13.2516 16.2683 13.2961 16.1353 13.331 16H7.52153Z" fill="#3C3C43" fill-opacity="0.6"/>
</svg>
