<svg width="24" height="24" viewBox="0 0 24 24" fill="none" xmlns="http://www.w3.org/2000/svg">
<path d="M9.13159 22H14.8684C16.1702 22 16.8675 21.0722 16.8675 19.5787V14.5097H20.6518C21.4049 14.5097 22 13.944 22 13.0841C22 12.5523 21.7861 12.1563 21.4423 11.7489L13.1483 1.6902C12.795 1.24891 12.4138 1 12.0047 1C11.5863 1 11.2143 1.24891 10.8517 1.6902L2.5579 11.7489C2.20459 12.1789 2 12.5523 2 13.0841C2 13.944 2.59507 14.5097 3.35752 14.5097H7.1325V19.5787C7.1325 21.0722 7.82989 22 9.13159 22Z" fill="black"/>
</svg>
