<svg width="20" height="20" viewBox="0 0 20 20" fill="none" xmlns="http://www.w3.org/2000/svg">
<path d="M2.5 7.49998C2.5 7.05795 2.67559 6.63403 2.98816 6.32147C3.30072 6.00891 3.72464 5.83331 4.16667 5.83331H4.94167C5.21599 5.83335 5.48608 5.76568 5.72797 5.6363C5.96987 5.50693 6.17609 5.31984 6.32833 5.09165L7.005 4.07498C7.15725 3.84679 7.36347 3.6597 7.60536 3.53032C7.84726 3.40094 8.11735 3.33327 8.39167 3.33331H11.6083C11.8827 3.33327 12.1527 3.40094 12.3946 3.53032C12.6365 3.6597 12.8428 3.84679 12.995 4.07498L13.6717 5.09165C13.8239 5.31984 14.0301 5.50693 14.272 5.6363C14.5139 5.76568 14.784 5.83335 15.0583 5.83331H15.8333C16.2754 5.83331 16.6993 6.00891 17.0118 6.32147C17.3244 6.63403 17.5 7.05795 17.5 7.49998V15C17.5 15.442 17.3244 15.8659 17.0118 16.1785C16.6993 16.4911 16.2754 16.6666 15.8333 16.6666H4.16667C3.72464 16.6666 3.30072 16.4911 2.98816 16.1785C2.67559 15.8659 2.5 15.442 2.5 15V7.49998Z" stroke="white" stroke-width="1.4" stroke-linecap="round" stroke-linejoin="round"/>
<path d="M12.5 10.8333C12.5 11.4964 12.2366 12.1322 11.7678 12.6011C11.2989 13.0699 10.663 13.3333 10 13.3333C9.33696 13.3333 8.70107 13.0699 8.23223 12.6011C7.76339 12.1322 7.5 11.4964 7.5 10.8333C7.5 10.1703 7.76339 9.53439 8.23223 9.06555C8.70107 8.5967 9.33696 8.33331 10 8.33331C10.663 8.33331 11.2989 8.5967 11.7678 9.06555C12.2366 9.53439 12.5 10.1703 12.5 10.8333V10.8333Z" stroke="white" stroke-width="2" stroke-linecap="round" stroke-linejoin="round"/>
</svg>
