<svg width="20" height="20" viewBox="0 0 20 20" fill="none" xmlns="http://www.w3.org/2000/svg">
<path d="M14.9999 16.6666H4.99992C4.55789 16.6666 4.13397 16.4911 3.82141 16.1785C3.50885 15.8659 3.33325 15.442 3.33325 15V4.99998C3.33325 4.55795 3.50885 4.13403 3.82141 3.82147C4.13397 3.50891 4.55789 3.33331 4.99992 3.33331H14.9999C15.4419 3.33331 15.8659 3.50891 16.1784 3.82147C16.491 4.13403 16.6666 4.55795 16.6666 4.99998V15C16.6666 15.442 16.491 15.8659 16.1784 16.1785C15.8659 16.4911 15.4419 16.6666 14.9999 16.6666Z" stroke="white" stroke-width="1.4" stroke-linecap="round" stroke-linejoin="round"/>
<path d="M7.32944 10.1564H7.22944V10.2564V10.843V10.943H7.32944H8.17703C8.14597 11.1945 8.03749 11.3842 7.87586 11.516C7.69058 11.6672 7.42546 11.7504 7.10203 11.7504C6.66213 11.7504 6.36047 11.5969 6.16655 11.359C5.97005 11.118 5.87443 10.7781 5.87443 10.3909C5.87443 10.0322 5.9694 9.70116 6.16494 9.46186C6.35804 9.22556 6.65722 9.06862 7.08974 9.06862C7.35177 9.06862 7.58437 9.12688 7.77304 9.24509C7.96073 9.36269 8.11071 9.54313 8.2035 9.79834L8.23844 9.89444L8.33374 9.85737L9.02519 9.58837L9.12447 9.54974L9.07966 9.4531C8.71147 8.65913 7.98555 8.23331 7.09588 8.23331C6.35402 8.23331 5.80151 8.48718 5.43541 8.89423C5.07089 9.29951 4.9 9.84672 4.9 10.4195C4.9 10.9942 5.07421 11.54 5.44116 11.9434C5.80957 12.3484 6.36343 12.6 7.10203 12.6C7.60144 12.6 8.03603 12.424 8.31615 12.1281L8.35491 12.4545L8.36538 12.5427H8.45421H9.07191H9.17191V12.4427V10.2564V10.1564H9.07191H7.32944ZM9.92151 12.4427V12.5427H10.0215H10.8021H10.9021V12.4427V8.39913V8.29913H10.8021H10.0215H9.92151V8.39913V12.4427ZM11.8207 12.4427V12.5427H11.9207H12.7013H12.8013V12.4427V10.8543H14.7296H14.8296V10.7543V10.0875V9.98755H14.7296H12.8013V9.16591H15H15.1V9.06591V8.39913V8.29913H15H11.9207H11.8207V8.39913V12.4427Z" fill="white" stroke="white" stroke-width="0.2"/>
</svg>
