<svg width="160" height="32" viewBox="0 0 160 32" fill="none" xmlns="http://www.w3.org/2000/svg">
<rect x="0.5" y="0.5" width="159" height="31" rx="15.5" fill="#323436"/>
<rect x="0.5" y="0.5" width="159" height="31" rx="15.5" stroke="#323436"/>
<path d="M19.3333 19.3333L23.1549 15.5116C23.4675 15.1992 23.8913 15.0237 24.3333 15.0237C24.7752 15.0237 25.199 15.1992 25.5116 15.5116L29.3333 19.3333M27.6666 17.6666L28.9883 16.345C29.3008 16.0325 29.7246 15.857 30.1666 15.857C30.6085 15.857 31.0324 16.0325 31.3449 16.345L32.6666 17.6666M27.6666 12.6666H27.6749M20.9999 22.6666H30.9999C31.4419 22.6666 31.8659 22.4911 32.1784 22.1785C32.491 21.8659 32.6666 21.442 32.6666 21V11C32.6666 10.558 32.491 10.134 32.1784 9.82147C31.8659 9.50891 31.4419 9.33331 30.9999 9.33331H20.9999C20.5579 9.33331 20.134 9.50891 19.8214 9.82147C19.5088 10.134 19.3333 10.558 19.3333 11V21C19.3333 21.442 19.5088 21.8659 19.8214 22.1785C20.134 22.4911 20.5579 22.6666 20.9999 22.6666Z" stroke="white" stroke-width="1.4" stroke-linecap="round" stroke-linejoin="round"/>
<path d="M66.9999 22.6666H56.9999C56.5579 22.6666 56.134 22.4911 55.8214 22.1785C55.5088 21.8659 55.3333 21.442 55.3333 21V11C55.3333 10.558 55.5088 10.134 55.8214 9.82147C56.134 9.50891 56.5579 9.33331 56.9999 9.33331H66.9999C67.4419 9.33331 67.8659 9.50891 68.1784 9.82147C68.491 10.134 68.6666 10.558 68.6666 11V21C68.6666 21.442 68.491 21.8659 68.1784 22.1785C67.8659 22.4911 67.4419 22.6666 66.9999 22.6666Z" stroke="white" stroke-width="1.4" stroke-linecap="round" stroke-linejoin="round"/>
<path d="M59.3294 16.1564H59.2294V16.2564V16.843V16.943H59.3294H60.177C60.146 17.1945 60.0375 17.3842 59.8759 17.516C59.6906 17.6672 59.4255 17.7504 59.102 17.7504C58.6621 17.7504 58.3605 17.5969 58.1666 17.359C57.97 17.118 57.8744 16.7781 57.8744 16.3909C57.8744 16.0322 57.9694 15.7012 58.1649 15.4619C58.358 15.2256 58.6572 15.0686 59.0897 15.0686C59.3518 15.0686 59.5844 15.1269 59.773 15.2451C59.9607 15.3627 60.1107 15.5431 60.2035 15.7983L60.2384 15.8944L60.3337 15.8574L61.0252 15.5884L61.1245 15.5497L61.0797 15.4531C60.7115 14.6591 59.9856 14.2333 59.0959 14.2333C58.354 14.2333 57.8015 14.4872 57.4354 14.8942C57.0709 15.2995 56.9 15.8467 56.9 16.4195C56.9 16.9942 57.0742 17.54 57.4412 17.9434C57.8096 18.3484 58.3634 18.6 59.102 18.6C59.6014 18.6 60.036 18.424 60.3162 18.1281L60.3549 18.4545L60.3654 18.5427H60.4542H61.0719H61.1719V18.4427V16.2564V16.1564H61.0719H59.3294ZM61.9215 18.4427V18.5427H62.0215H62.8021H62.9021V18.4427V14.3991V14.2991H62.8021H62.0215H61.9215V14.3991V18.4427ZM63.8207 18.4427V18.5427H63.9207H64.7013H64.8013V18.4427V16.8543H66.7296H66.8296V16.7543V16.0875V15.9875H66.7296H64.8013V15.1659H67H67.1V15.0659V14.3991V14.2991H67H63.9207H63.8207V14.3991V18.4427Z" fill="white" stroke="white" stroke-width="0.2"/>
<path d="M90.5 13.5C90.5 13.058 90.6756 12.634 90.9882 12.3215C91.3007 12.0089 91.7246 11.8333 92.1667 11.8333H92.9417C93.216 11.8334 93.4861 11.7657 93.728 11.6363C93.9699 11.5069 94.1761 11.3198 94.3283 11.0916L95.005 10.075C95.1572 9.84679 95.3635 9.6597 95.6054 9.53032C95.8473 9.40094 96.1173 9.33327 96.3917 9.33331H99.6083C99.8827 9.33327 100.153 9.40094 100.395 9.53032C100.637 9.6597 100.843 9.84679 100.995 10.075L101.672 11.0916C101.824 11.3198 102.03 11.5069 102.272 11.6363C102.514 11.7657 102.784 11.8334 103.058 11.8333H103.833C104.275 11.8333 104.699 12.0089 105.012 12.3215C105.324 12.634 105.5 13.058 105.5 13.5V21C105.5 21.442 105.324 21.8659 105.012 22.1785C104.699 22.4911 104.275 22.6666 103.833 22.6666H92.1667C91.7246 22.6666 91.3007 22.4911 90.9882 22.1785C90.6756 21.8659 90.5 21.442 90.5 21V13.5Z" stroke="white" stroke-width="1.4" stroke-linecap="round" stroke-linejoin="round"/>
<path d="M100.5 16.8333C100.5 17.4964 100.237 18.1322 99.7678 18.6011C99.2989 19.0699 98.663 19.3333 98 19.3333C97.337 19.3333 96.7011 19.0699 96.2322 18.6011C95.7634 18.1322 95.5 17.4964 95.5 16.8333C95.5 16.1703 95.7634 15.5344 96.2322 15.0655C96.7011 14.5967 97.337 14.3333 98 14.3333C98.663 14.3333 99.2989 14.5967 99.7678 15.0655C100.237 15.5344 100.5 16.1703 100.5 16.8333V16.8333Z" stroke="white" stroke-width="2" stroke-linecap="round" stroke-linejoin="round"/>
<path d="M136.643 11.8333L131.155 17.3217C130.996 17.4754 130.869 17.6593 130.782 17.8627C130.694 18.066 130.648 18.2847 130.646 18.506C130.644 18.7273 130.687 18.9468 130.77 19.1516C130.854 19.3564 130.978 19.5425 131.134 19.699C131.291 19.8555 131.477 19.9792 131.682 20.063C131.887 20.1468 132.106 20.189 132.327 20.1871C132.549 20.1852 132.767 20.1392 132.971 20.0518C133.174 19.9645 133.358 19.8375 133.512 19.6783L138.857 14.19C139.464 13.5613 139.8 12.7193 139.792 11.8453C139.785 10.9713 139.434 10.1353 138.816 9.51727C138.198 8.89924 137.362 8.54868 136.488 8.54108C135.614 8.53349 134.772 8.86947 134.143 9.47666L128.798 14.9642C127.86 15.9019 127.333 17.1738 127.333 18.5C127.333 19.8262 127.86 21.0981 128.798 22.0358C129.735 22.9736 131.007 23.5004 132.333 23.5004C133.66 23.5004 134.932 22.9736 135.869 22.0358L141.083 16.8333" stroke="white" stroke-width="1.4" stroke-linecap="round" stroke-linejoin="round"/>
</svg>
