<svg width="19" height="13" viewBox="0 0 19 13" fill="none" xmlns="http://www.w3.org/2000/svg">
<path fill-rule="evenodd" clip-rule="evenodd" d="M17.8399 0.871216H16.7759C16.1883 0.871216 15.7119 1.34946 15.7119 1.9394V11.197C15.7119 11.7869 16.1883 12.2652 16.7759 12.2652H17.8399C18.4275 12.2652 18.9039 11.7869 18.9039 11.197V1.9394C18.9039 1.34946 18.4275 0.871216 17.8399 0.871216ZM11.8106 3.36364H12.8746C13.4622 3.36364 13.9386 3.84188 13.9386 4.43182V11.197C13.9386 11.7869 13.4622 12.2652 12.8746 12.2652H11.8106C11.223 12.2652 10.7466 11.7869 10.7466 11.197V4.43182C10.7466 3.84188 11.223 3.36364 11.8106 3.36364ZM7.90925 5.85606H6.84525C6.25762 5.85606 5.78125 6.33431 5.78125 6.92425V11.197C5.78125 11.7869 6.25762 12.2652 6.84525 12.2652H7.90925C8.49688 12.2652 8.97325 11.7869 8.97325 11.197V6.92425C8.97325 6.33431 8.49688 5.85606 7.90925 5.85606ZM2.94392 7.99243H1.87992C1.29229 7.99243 0.815918 8.47067 0.815918 9.06061V11.197C0.815918 11.7869 1.29229 12.2652 1.87992 12.2652H2.94392C3.53155 12.2652 4.00792 11.7869 4.00792 11.197V9.06061C4.00792 8.47067 3.53155 7.99243 2.94392 7.99243Z" fill="white"/>
</svg>
