<svg width="32" height="32" viewBox="0 0 32 32" fill="none" xmlns="http://www.w3.org/2000/svg">
<path fill-rule="evenodd" clip-rule="evenodd" d="M15.75 31.5C24.4485 31.5 31.5 24.4485 31.5 15.75C31.5 7.05152 24.4485 0 15.75 0C7.05152 0 0 7.05152 0 15.75C0 24.4485 7.05152 31.5 15.75 31.5Z" fill="#262626" fill-opacity="0.8"/>
<path fill-rule="evenodd" clip-rule="evenodd" d="M24 12.5C24 10.0147 21.9853 8 19.5 8H12.25C9.76472 8 7.75 10.0147 7.75 12.5V19.75C7.75 22.2353 9.76472 24.25 12.25 24.25H19.5C21.9853 24.25 24 22.2353 24 19.75V12.5ZM12.25 9H15.25V23.25H12.25C10.317 23.25 8.75 21.683 8.75 19.75V12.5C8.75 10.567 10.317 9 12.25 9ZM23 16.625H16.25V23.25H19.5C21.433 23.25 23 21.683 23 19.75V16.625ZM16.25 9H19.5C21.433 9 23 10.567 23 12.5V15.625H16.25V9Z" fill="white"/>
</svg>
