<svg width="24" height="24" viewBox="0 0 24 24" fill="none" xmlns="http://www.w3.org/2000/svg">
<g clip-path="url(#clip0_454_6044)">
<path d="M16.7934 13.6C16.9849 13.0883 17.082 12.5462 17.0801 12C17.0801 10.787 16.5983 9.6238 15.7406 8.76613C14.8829 7.90847 13.7197 7.42664 12.5068 7.42664C11.9672 7.42727 11.4321 7.52435 10.9268 7.7133L12.0001 8.81997C12.1633 8.79387 12.3282 8.78049 12.4934 8.77997C13.351 8.77818 14.1745 9.1158 14.7841 9.7191C15.3936 10.3224 15.7397 11.1424 15.7468 12C15.7462 12.1652 15.7328 12.3301 15.7068 12.4933L16.7934 13.6Z" fill="black"/>
<path d="M22.8598 11.6867C20.6132 7.53335 16.6732 5.02002 12.3132 5.02002C11.1261 5.02281 9.94693 5.21408 8.81982 5.58669L9.89316 6.66669C10.6837 6.46237 11.4966 6.35712 12.3132 6.35335C16.0665 6.35335 19.4798 8.44669 21.5132 11.9734C20.7673 13.2818 19.7785 14.4357 18.5998 15.3734L19.5465 16.32C20.9105 15.2196 22.0434 13.8601 22.8798 12.32L23.0532 12L22.8598 11.6867Z" fill="black"/>
<path d="M3.24643 3.85332L6.21976 6.82665C4.34037 8.03673 2.80436 9.7105 1.75976 11.6867L1.58643 12L1.75976 12.32C4.00643 16.4733 7.94642 18.9867 12.3064 18.9867C14.0082 18.9863 15.6879 18.6011 17.2198 17.86L20.5531 21.1933L21.7198 20.1933L4.38643 2.85999L3.24643 3.85332ZM9.74643 10.3533L14.1798 14.7867C13.6788 15.0967 13.1022 15.2628 12.5131 15.2667C12.085 15.2667 11.6612 15.182 11.266 15.0176C10.8708 14.8532 10.512 14.6123 10.2103 14.3087C9.90851 14.0051 9.66978 13.6448 9.5078 13.2486C9.34582 12.8524 9.26379 12.428 9.26643 12C9.27394 11.4177 9.43987 10.8484 9.74643 10.3533ZM8.77976 9.38665C8.15605 10.2663 7.86371 11.3382 7.9545 12.4126C8.0453 13.4871 8.51336 14.4948 9.27583 15.2572C10.0383 16.0197 11.046 16.4878 12.1204 16.5786C13.1949 16.6694 14.2668 16.377 15.1464 15.7533L16.2131 16.82C14.9783 17.3478 13.6493 17.62 12.3064 17.62C8.55309 17.62 5.13976 15.5267 3.10643 12C4.08223 10.2721 5.48758 8.82545 7.18643 7.79999L8.77976 9.38665Z" fill="black"/>
</g>
<defs>
<clipPath id="clip0_454_6044">
<rect width="24" height="24" fill="white"/>
</clipPath>
</defs>
</svg>
