<svg width="32" height="32" viewBox="0 0 32 32" fill="none" xmlns="http://www.w3.org/2000/svg">
<path d="M15.3334 28C22.2503 28 28.0001 22.2627 28.0001 15.3333C28.0001 8.41635 22.2379 2.66667 15.321 2.66667C8.39153 2.66667 2.66675 8.41635 2.66675 15.3333C2.66675 22.2627 8.40398 28 15.3334 28ZM15.3334 25.8889C9.47194 25.8889 4.79021 21.1948 4.79021 15.3333C4.79021 9.48431 9.45954 4.77779 15.321 4.77779C21.1699 4.77779 25.8765 9.48431 25.889 15.3333C25.9014 21.1948 21.1824 25.8889 15.3334 25.8889ZM11.7197 14.2033C12.4523 14.2033 13.0609 13.5575 13.0609 12.651C13.0609 11.7445 12.4523 11.0987 11.7197 11.0987C10.9994 11.0987 10.4033 11.7445 10.4033 12.651C10.4033 13.5575 10.9994 14.2033 11.7197 14.2033ZM18.9843 14.2033C19.717 14.2033 20.3255 13.5575 20.3255 12.651C20.3255 11.7445 19.717 11.0987 18.9843 11.0987C18.2516 11.0987 17.6556 11.7445 17.6556 12.651C17.6556 13.5575 18.2516 14.2033 18.9843 14.2033ZM15.3334 21.3189C18.3261 21.3189 20.2013 19.1954 20.2013 18.3882C20.2013 18.2268 20.0771 18.1523 19.953 18.2516C19.0464 19.0091 17.519 19.7542 15.3334 19.7542C13.1353 19.7542 11.5706 18.9594 10.7013 18.264C10.5772 18.1523 10.453 18.2268 10.453 18.3882C10.453 19.1954 12.3281 21.3189 15.3334 21.3189Z" fill="#50555C"/>
</svg>
