<svg width="32" height="32" viewBox="0 0 32 32" fill="none" xmlns="http://www.w3.org/2000/svg">
<path d="M19.7485 14.7533V7.30718C19.7485 4.57257 17.9437 2.66667 15.3395 2.66667C12.7352 2.66667 10.9304 4.57257 10.9304 7.30718V14.7533C10.9304 17.476 12.7352 19.3937 15.3395 19.3937C17.9437 19.3937 19.7485 17.476 19.7485 14.7533ZM17.9195 14.7533C17.9195 16.5053 16.8899 17.6299 15.3395 17.6299C13.789 17.6299 12.7594 16.5053 12.7594 14.7533V7.30718C12.7594 5.55512 13.789 4.43054 15.3395 4.43054C16.8899 4.43054 17.9195 5.55512 17.9195 7.30718V14.7533ZM9.92504 26.2125C9.41634 26.2125 9.01659 26.615 9.01659 27.1122C9.01659 27.6094 9.41634 28 9.92504 28H20.7539C21.2626 28 21.6623 27.6094 21.6623 27.1122C21.6623 26.615 21.2626 26.2125 20.7539 26.2125H16.2479V23.4542C20.875 23.0754 24.0001 19.8318 24.0001 15.1794V12.7763C24.0001 12.2791 23.6004 11.8885 23.0916 11.8885C22.5829 11.8885 22.1711 12.2791 22.1711 12.7763V15.1084C22.1711 19.1452 19.482 21.8205 15.3395 21.8205C11.1969 21.8205 8.49574 19.1452 8.49574 15.1084V12.7763C8.49574 12.2791 8.09604 11.8885 7.58729 11.8885C7.07854 11.8885 6.66675 12.2791 6.66675 12.7763V15.1794C6.66675 19.8318 9.80395 23.0754 14.4189 23.4542V26.2125H9.92504Z" fill="#50555C"/>
</svg>
