<svg width="24" height="24" viewBox="0 0 24 24" fill="none" xmlns="http://www.w3.org/2000/svg">
<path d="M18.2469 20C20.0795 20 21 19.1049 21 17.3058V6.69418C21 4.89514 20.0795 4 18.2469 4H10.6276C9.60179 4 8.71622 4.26072 7.99724 5.01684L2.83293 10.3357C2.26303 10.918 2 11.4394 2 11.987C2 12.5258 2.25427 13.056 2.83293 13.6383L8.00603 18.931C8.73377 19.6784 9.61058 19.9913 10.6364 19.9913L18.2469 20ZM18.2295 18.6008H10.6101C9.94375 18.6008 9.53164 18.4443 9.06694 17.975L3.92893 12.717C3.63084 12.4128 3.54316 12.2042 3.54316 11.987C3.54316 11.761 3.6396 11.5524 3.92893 11.2483L9.05819 5.97284C9.5141 5.51221 9.94375 5.39923 10.6013 5.39923H18.2295C19.1063 5.39923 19.5884 5.85985 19.5884 6.76371V17.2363C19.5884 18.1401 19.1063 18.6008 18.2295 18.6008ZM16.0287 15.559C16.4057 15.559 16.7126 15.2635 16.7126 14.8984C16.7126 14.7159 16.6337 14.5595 16.5021 14.4291L14.0471 11.987L16.5021 9.55348C16.6337 9.42314 16.7126 9.25802 16.7126 9.08418C16.7126 8.71048 16.3969 8.39762 16.0287 8.39762C15.8533 8.39762 15.6867 8.47583 15.5552 8.60621L13.1002 11.0483L10.6364 8.60621C10.5049 8.47583 10.3471 8.39762 10.1629 8.39762C9.79467 8.39762 9.47905 8.71048 9.47905 9.08418C9.47905 9.25802 9.55794 9.42314 9.68948 9.55348L12.1445 11.987L9.68948 14.4291C9.55794 14.5595 9.47905 14.7159 9.47905 14.8984C9.47905 15.2635 9.78592 15.559 10.1629 15.559C10.3558 15.559 10.5049 15.4981 10.6276 15.3764L13.1002 12.9169L15.564 15.3764C15.6867 15.4981 15.8446 15.559 16.0287 15.559Z" fill="black"/>
</svg>
