<svg width="20" height="20" viewBox="0 0 20 20" fill="none" xmlns="http://www.w3.org/2000/svg">
<path d="M3.33325 13.3333L7.15492 9.51167C7.46747 9.19922 7.89131 9.02369 8.33325 9.02369C8.77519 9.02369 9.19904 9.19922 9.51158 9.51167L13.3333 13.3333M11.6666 11.6667L12.9883 10.345C13.3008 10.0325 13.7246 9.85702 14.1666 9.85702C14.6085 9.85702 15.0324 10.0325 15.3449 10.345L16.6666 11.6667M11.6666 6.66667H11.6749M4.99992 16.6667H14.9999C15.4419 16.6667 15.8659 16.4911 16.1784 16.1785C16.491 15.866 16.6666 15.442 16.6666 15V5C16.6666 4.55797 16.491 4.13405 16.1784 3.82149C15.8659 3.50893 15.4419 3.33333 14.9999 3.33333H4.99992C4.55789 3.33333 4.13397 3.50893 3.82141 3.82149C3.50885 4.13405 3.33325 4.55797 3.33325 5V15C3.33325 15.442 3.50885 15.866 3.82141 16.1785C4.13397 16.4911 4.55789 16.6667 4.99992 16.6667Z" stroke="white" stroke-width="1.4" stroke-linecap="round" stroke-linejoin="round"/>
</svg>
