<svg width="21" height="18" viewBox="0 0 21 18" fill="none" xmlns="http://www.w3.org/2000/svg">
<path fill-rule="evenodd" clip-rule="evenodd" d="M0.399902 2C0.399902 0.89543 1.29533 0 2.3999 0H18.3999C19.5045 0 20.3999 0.895431 20.3999 2V16C20.3999 17.1046 19.5045 18 18.3999 18H2.3999C1.29533 18 0.399902 17.1046 0.399902 16V2ZM2.3999 1.5H18.3999C18.676 1.5 18.8999 1.72386 18.8999 2V2.93195L10.5386 8.50616C10.4546 8.56215 10.3452 8.56215 10.2612 8.50616L1.8999 2.93195V2C1.8999 1.72386 2.12376 1.5 2.3999 1.5ZM1.8999 4.73472V16C1.8999 16.2761 2.12376 16.5 2.3999 16.5H18.3999C18.676 16.5 18.8999 16.2761 18.8999 16V4.73472L11.3706 9.75424C10.7828 10.1461 10.017 10.1461 9.42918 9.75424L1.8999 4.73472Z" fill="#3C3C43" fill-opacity="0.6"/>
</svg>
