<svg width="17" height="13" viewBox="0 0 17 13" fill="none" xmlns="http://www.w3.org/2000/svg">
<path fill-rule="evenodd" clip-rule="evenodd" d="M8.38188 2.95257C10.749 2.95267 13.0256 3.86502 14.7411 5.50104C14.8703 5.62734 15.0768 5.62575 15.204 5.49746L16.4389 4.24734C16.5034 4.18227 16.5393 4.09414 16.5387 4.00243C16.5382 3.91073 16.5013 3.82302 16.4361 3.75872C11.9333 -0.569801 4.82972 -0.569801 0.326964 3.75872C0.261738 3.82298 0.22473 3.91066 0.224129 4.00236C0.223527 4.09406 0.259382 4.18223 0.323759 4.24734L1.55901 5.49746C1.68616 5.62594 1.8928 5.62754 2.02191 5.50104C3.73767 3.86491 6.01454 2.95256 8.38188 2.95257ZM8.38188 7.01976C9.68246 7.01968 10.9366 7.50458 11.9007 8.38025C12.0311 8.50453 12.2365 8.50183 12.3636 8.37418L13.5971 7.12405C13.662 7.05848 13.6981 6.96953 13.6971 6.87709C13.6962 6.78466 13.6583 6.69645 13.5921 6.63222C10.6563 3.89296 6.10994 3.89296 3.17419 6.63222C3.10788 6.69645 3.07004 6.7847 3.06917 6.87716C3.0683 6.96963 3.10447 7.05858 3.16956 7.12405L4.40267 8.37418C4.52978 8.50183 4.73519 8.50453 4.86558 8.38025C5.829 7.50516 7.08217 7.0203 8.38188 7.01976ZM10.8527 9.75627C10.8546 9.84896 10.8183 9.93833 10.7523 10.0033L8.61868 12.1631C8.55613 12.2266 8.47086 12.2623 8.38188 12.2623C8.29291 12.2623 8.20763 12.2266 8.14509 12.1631L6.01109 10.0033C5.94517 9.93828 5.9089 9.84888 5.91086 9.75619C5.91281 9.66349 5.95282 9.57571 6.02142 9.51358C7.38404 8.35752 9.37972 8.35752 10.7423 9.51358C10.8109 9.57576 10.8508 9.66357 10.8527 9.75627Z" fill="white"/>
</svg>
