<svg width="362" height="30" viewBox="0 0 362 30" fill="none" xmlns="http://www.w3.org/2000/svg">
<path d="M1.08709 14V3.81818H5.10414C5.87639 3.81818 6.5343 3.96567 7.07786 4.26065C7.62142 4.55232 8.03572 4.95833 8.32076 5.47869C8.60911 5.99574 8.75329 6.59233 8.75329 7.26847C8.75329 7.9446 8.60745 8.54119 8.31579 9.05824C8.02412 9.57528 7.60153 9.97798 7.04803 10.2663C6.49784 10.5547 5.83165 10.6989 5.04945 10.6989H2.48908V8.97372H4.70144C5.11574 8.97372 5.45712 8.90246 5.72559 8.75994C5.99737 8.61411 6.19954 8.41359 6.33212 8.15838C6.46801 7.89986 6.53596 7.60322 6.53596 7.26847C6.53596 6.9304 6.46801 6.63542 6.33212 6.38352C6.19954 6.12831 5.99737 5.93111 5.72559 5.7919C5.45381 5.64938 5.10911 5.57812 4.6915 5.57812H3.23979V14H1.08709ZM13.439 14.1491C12.6668 14.1491 11.9989 13.9851 11.4355 13.657C10.8753 13.3255 10.4428 12.8648 10.1379 12.2749C9.83295 11.6816 9.68049 10.9938 9.68049 10.2116C9.68049 9.42282 9.83295 8.73343 10.1379 8.14347C10.4428 7.55019 10.8753 7.08949 11.4355 6.76136C11.9989 6.42992 12.6668 6.2642 13.439 6.2642C14.2113 6.2642 14.8775 6.42992 15.4376 6.76136C16.001 7.08949 16.4352 7.55019 16.7401 8.14347C17.0451 8.73343 17.1975 9.42282 17.1975 10.2116C17.1975 10.9938 17.0451 11.6816 16.7401 12.2749C16.4352 12.8648 16.001 13.3255 15.4376 13.657C14.8775 13.9851 14.2113 14.1491 13.439 14.1491ZM13.449 12.5085C13.8003 12.5085 14.0936 12.4091 14.3289 12.2102C14.5642 12.008 14.7416 11.733 14.8609 11.3849C14.9835 11.0369 15.0448 10.6409 15.0448 10.1967C15.0448 9.7526 14.9835 9.35653 14.8609 9.00852C14.7416 8.66051 14.5642 8.38542 14.3289 8.18324C14.0936 7.98106 13.8003 7.87997 13.449 7.87997C13.0943 7.87997 12.796 7.98106 12.5541 8.18324C12.3154 8.38542 12.1348 8.66051 12.0122 9.00852C11.8928 9.35653 11.8332 9.7526 11.8332 10.1967C11.8332 10.6409 11.8928 11.0369 12.0122 11.3849C12.1348 11.733 12.3154 12.008 12.5541 12.2102C12.796 12.4091 13.0943 12.5085 13.449 12.5085ZM24.9284 8.54119L22.9894 8.66051C22.9563 8.49479 22.885 8.34564 22.7757 8.21307C22.6663 8.07718 22.5221 7.96946 22.3431 7.88991C22.1675 7.80705 21.957 7.76562 21.7117 7.76562C21.3836 7.76562 21.1069 7.83523 20.8815 7.97443C20.6561 8.11032 20.5434 8.29261 20.5434 8.52131C20.5434 8.7036 20.6163 8.85772 20.7622 8.98366C20.908 9.10961 21.1582 9.2107 21.5129 9.28693L22.895 9.56534C23.6374 9.7178 24.1909 9.96307 24.5555 10.3011C24.9201 10.6392 25.1024 11.0833 25.1024 11.6335C25.1024 12.134 24.9549 12.5732 24.6599 12.951C24.3682 13.3288 23.9672 13.6238 23.4568 13.8359C22.9497 14.0447 22.3647 14.1491 21.7018 14.1491C20.6909 14.1491 19.8855 13.9387 19.2856 13.5178C18.689 13.0935 18.3393 12.5168 18.2366 11.7876L20.3197 11.6783C20.3827 11.9865 20.5351 12.2218 20.7771 12.3842C21.019 12.5433 21.3289 12.6229 21.7068 12.6229C22.078 12.6229 22.3763 12.5516 22.6017 12.4091C22.8303 12.2633 22.9463 12.076 22.9497 11.8473C22.9463 11.6551 22.8651 11.4976 22.7061 11.375C22.547 11.2491 22.3017 11.1529 21.9703 11.0866L20.6478 10.8232C19.9021 10.674 19.3469 10.4155 18.9823 10.0476C18.6211 9.67969 18.4404 9.2107 18.4404 8.64062C18.4404 8.15009 18.573 7.72751 18.8382 7.37287C19.1066 7.01823 19.4828 6.74479 19.9667 6.55256C20.4539 6.36032 21.024 6.2642 21.6769 6.2642C22.6414 6.2642 23.4004 6.46804 23.9539 6.87571C24.5107 7.28338 24.8356 7.83854 24.9284 8.54119ZM30.4978 6.36364V7.95455H25.8991V6.36364H30.4978ZM26.9431 4.53409H29.061V11.6534C29.061 11.849 29.0908 12.0014 29.1505 12.1108C29.2101 12.2169 29.293 12.2914 29.3991 12.3345C29.5084 12.3776 29.6344 12.3991 29.7769 12.3991C29.8763 12.3991 29.9758 12.3909 30.0752 12.3743C30.1746 12.3544 30.2509 12.3395 30.3039 12.3295L30.637 13.9055C30.5309 13.9387 30.3818 13.9768 30.1895 14.0199C29.9973 14.0663 29.7636 14.0945 29.4885 14.1044C28.9781 14.1243 28.5307 14.0563 28.1462 13.9006C27.7651 13.7448 27.4684 13.5028 27.2563 13.1747C27.0442 12.8466 26.9398 12.4323 26.9431 11.9318V4.53409ZM38.1354 8.54119L36.1965 8.66051C36.1633 8.49479 36.0921 8.34564 35.9827 8.21307C35.8733 8.07718 35.7291 7.96946 35.5502 7.88991C35.3745 7.80705 35.164 7.76562 34.9188 7.76562C34.5906 7.76562 34.3139 7.83523 34.0885 7.97443C33.8631 8.11032 33.7504 8.29261 33.7504 8.52131C33.7504 8.7036 33.8234 8.85772 33.9692 8.98366C34.115 9.10961 34.3653 9.2107 34.7199 9.28693L36.102 9.56534C36.8444 9.7178 37.3979 9.96307 37.7625 10.3011C38.1271 10.6392 38.3094 11.0833 38.3094 11.6335C38.3094 12.134 38.1619 12.5732 37.8669 12.951C37.5753 13.3288 37.1742 13.6238 36.6638 13.8359C36.1567 14.0447 35.5717 14.1491 34.9088 14.1491C33.8979 14.1491 33.0925 13.9387 32.4926 13.5178C31.896 13.0935 31.5464 12.5168 31.4436 11.7876L33.5267 11.6783C33.5897 11.9865 33.7422 12.2218 33.9841 12.3842C34.2261 12.5433 34.536 12.6229 34.9138 12.6229C35.285 12.6229 35.5833 12.5516 35.8087 12.4091C36.0374 12.2633 36.1534 12.076 36.1567 11.8473C36.1534 11.6551 36.0722 11.4976 35.9131 11.375C35.754 11.2491 35.5087 11.1529 35.1773 11.0866L33.8548 10.8232C33.1091 10.674 32.5539 10.4155 32.1894 10.0476C31.8281 9.67969 31.6475 9.2107 31.6475 8.64062C31.6475 8.15009 31.78 7.72751 32.0452 7.37287C32.3137 7.01823 32.6898 6.74479 33.1737 6.55256C33.661 6.36032 34.231 6.2642 34.884 6.2642C35.8485 6.2642 36.6075 6.46804 37.161 6.87571C37.7178 7.28338 38.0426 7.83854 38.1354 8.54119Z" fill="white"/>
<path d="M102.161 6.36364C102.102 5.85985 101.86 5.46875 101.436 5.19034C101.011 4.91193 100.491 4.77273 99.8746 4.77273C99.4238 4.77273 99.0294 4.84564 98.6913 4.99148C98.3566 5.13731 98.0947 5.33783 97.9058 5.59304C97.7202 5.84825 97.6274 6.13826 97.6274 6.46307C97.6274 6.73485 97.692 6.96851 97.8213 7.16406C97.9539 7.3563 98.1229 7.51705 98.3284 7.64631C98.5339 7.77225 98.7493 7.87666 98.9747 7.95952C99.2001 8.03906 99.4072 8.10369 99.5961 8.15341L100.63 8.43182C100.895 8.50142 101.19 8.59754 101.515 8.72017C101.843 8.8428 102.157 9.01018 102.455 9.2223C102.756 9.43111 103.005 9.69957 103.201 10.0277C103.396 10.3558 103.494 10.7585 103.494 11.2358C103.494 11.786 103.35 12.2831 103.061 12.7273C102.776 13.1714 102.359 13.5244 101.809 13.7862C101.262 14.0481 100.597 14.179 99.8149 14.179C99.0857 14.179 98.4543 14.0613 97.9207 13.826C97.3904 13.5907 96.9728 13.2625 96.6679 12.8416C96.3663 12.4207 96.1956 11.9318 96.1558 11.375H97.4285C97.4617 11.7595 97.5909 12.0777 97.8163 12.3295C98.045 12.5781 98.3334 12.7637 98.6814 12.8864C99.0327 13.0057 99.4105 13.0653 99.8149 13.0653C100.286 13.0653 100.708 12.9891 101.083 12.8366C101.457 12.6809 101.754 12.4654 101.973 12.1903C102.191 11.9119 102.301 11.5871 102.301 11.2159C102.301 10.8778 102.206 10.6027 102.017 10.3906C101.828 10.1785 101.58 10.0062 101.272 9.87358C100.963 9.741 100.63 9.625 100.272 9.52557L99.0194 9.16761C98.224 8.93892 97.5943 8.61245 97.1302 8.18821C96.6662 7.76397 96.4342 7.20881 96.4342 6.52273C96.4342 5.95265 96.5883 5.45549 96.8966 5.03125C97.2081 4.60369 97.6257 4.27225 98.1494 4.03693C98.6764 3.7983 99.2647 3.67898 99.9143 3.67898C100.571 3.67898 101.154 3.79664 101.664 4.03196C102.175 4.26397 102.579 4.58215 102.877 4.98651C103.179 5.39086 103.338 5.8499 103.355 6.36364H102.161ZM108.683 6.36364V7.35795H104.726V6.36364H108.683ZM105.879 4.53409H107.052V11.8125C107.052 12.1439 107.1 12.3925 107.196 12.5582C107.296 12.7206 107.422 12.83 107.574 12.8864C107.73 12.9394 107.894 12.9659 108.066 12.9659C108.196 12.9659 108.302 12.9593 108.385 12.946C108.468 12.9295 108.534 12.9162 108.584 12.9062L108.822 13.9602C108.743 13.9901 108.632 14.0199 108.489 14.0497C108.347 14.0829 108.166 14.0994 107.947 14.0994C107.616 14.0994 107.291 14.0282 106.973 13.8857C106.658 13.7431 106.396 13.526 106.187 13.2344C105.982 12.9427 105.879 12.5748 105.879 12.1307V4.53409ZM113.468 14.1591C112.779 14.1591 112.174 13.995 111.653 13.6669C111.136 13.3388 110.732 12.8797 110.44 12.2898C110.152 11.6998 110.008 11.0104 110.008 10.2216C110.008 9.42614 110.152 8.73177 110.44 8.13849C110.732 7.54522 111.136 7.08452 111.653 6.75639C112.174 6.42827 112.779 6.2642 113.468 6.2642C114.158 6.2642 114.761 6.42827 115.278 6.75639C115.798 7.08452 116.203 7.54522 116.491 8.13849C116.783 8.73177 116.928 9.42614 116.928 10.2216C116.928 11.0104 116.783 11.6998 116.491 12.2898C116.203 12.8797 115.798 13.3388 115.278 13.6669C114.761 13.995 114.158 14.1591 113.468 14.1591ZM113.468 13.1051C113.992 13.1051 114.423 12.9709 114.761 12.7024C115.099 12.4339 115.349 12.081 115.511 11.6435C115.674 11.206 115.755 10.732 115.755 10.2216C115.755 9.71117 115.674 9.23556 115.511 8.79474C115.349 8.35393 115.099 7.99763 114.761 7.72585C114.423 7.45407 113.992 7.31818 113.468 7.31818C112.944 7.31818 112.514 7.45407 112.176 7.72585C111.837 7.99763 111.587 8.35393 111.425 8.79474C111.262 9.23556 111.181 9.71117 111.181 10.2216C111.181 10.732 111.262 11.206 111.425 11.6435C111.587 12.081 111.837 12.4339 112.176 12.7024C112.514 12.9709 112.944 13.1051 113.468 13.1051ZM118.719 14V6.36364H119.853V7.51705H119.932C120.072 7.1392 120.324 6.83262 120.688 6.5973C121.053 6.36198 121.464 6.24432 121.921 6.24432C122.007 6.24432 122.115 6.24597 122.244 6.24929C122.373 6.2526 122.471 6.25758 122.538 6.2642V7.45739C122.498 7.44744 122.407 7.43253 122.264 7.41264C122.125 7.38944 121.977 7.37784 121.822 7.37784C121.45 7.37784 121.119 7.45573 120.827 7.61151C120.539 7.76397 120.31 7.97609 120.141 8.24787C119.976 8.51634 119.893 8.82292 119.893 9.16761V14H118.719ZM123.928 14V6.36364H125.102V14H123.928ZM124.525 5.09091C124.296 5.09091 124.099 5.01302 123.933 4.85724C123.771 4.70147 123.69 4.5142 123.69 4.29545C123.69 4.0767 123.771 3.88944 123.933 3.73366C124.099 3.57789 124.296 3.5 124.525 3.5C124.754 3.5 124.949 3.57789 125.112 3.73366C125.277 3.88944 125.36 4.0767 125.36 4.29545C125.36 4.5142 125.277 4.70147 125.112 4.85724C124.949 5.01302 124.754 5.09091 124.525 5.09091ZM130.452 14.1591C129.717 14.1591 129.082 13.9967 128.548 13.6719C128.018 13.3438 127.609 12.8864 127.32 12.2997C127.035 11.7098 126.893 11.0237 126.893 10.2415C126.893 9.45928 127.035 8.76989 127.32 8.1733C127.609 7.57339 128.01 7.10606 128.523 6.77131C129.04 6.43324 129.644 6.2642 130.333 6.2642C130.731 6.2642 131.123 6.33049 131.511 6.46307C131.899 6.59564 132.252 6.81108 132.57 7.10938C132.888 7.40436 133.142 7.79545 133.331 8.28267C133.52 8.76989 133.614 9.36979 133.614 10.0824V10.5795H127.728V9.56534H132.421C132.421 9.13447 132.335 8.75 132.163 8.41193C131.994 8.07386 131.752 7.80705 131.437 7.61151C131.125 7.41596 130.757 7.31818 130.333 7.31818C129.866 7.31818 129.461 7.43419 129.12 7.66619C128.782 7.89489 128.522 8.19318 128.339 8.56108C128.157 8.92898 128.066 9.32339 128.066 9.74432V10.4205C128.066 10.9972 128.165 11.486 128.364 11.8871C128.566 12.2848 128.847 12.5881 129.204 12.7969C129.562 13.0024 129.978 13.1051 130.452 13.1051C130.761 13.1051 131.039 13.062 131.288 12.9759C131.539 12.8864 131.757 12.7538 131.939 12.5781C132.121 12.3991 132.262 12.1771 132.361 11.9119L133.495 12.2301C133.376 12.6146 133.175 12.9527 132.893 13.2443C132.612 13.5327 132.264 13.758 131.849 13.9205C131.435 14.0795 130.969 14.1591 130.452 14.1591ZM140.808 8.07386L139.754 8.37216C139.688 8.1965 139.59 8.0258 139.461 7.86009C139.335 7.69105 139.163 7.55185 138.944 7.44247C138.725 7.3331 138.445 7.27841 138.104 7.27841C137.636 7.27841 137.247 7.38613 136.935 7.60156C136.627 7.81368 136.473 8.08381 136.473 8.41193C136.473 8.7036 136.579 8.93395 136.791 9.10298C137.003 9.27202 137.335 9.41288 137.785 9.52557L138.919 9.80398C139.602 9.9697 140.11 10.2232 140.445 10.5646C140.78 10.9027 140.947 11.3385 140.947 11.8722C140.947 12.3097 140.821 12.7008 140.57 13.0455C140.321 13.3902 139.973 13.6619 139.525 13.8608C139.078 14.0597 138.558 14.1591 137.964 14.1591C137.186 14.1591 136.541 13.9901 136.03 13.652C135.52 13.3139 135.197 12.8201 135.061 12.1705L136.175 11.892C136.281 12.303 136.481 12.6113 136.776 12.8168C137.074 13.0223 137.464 13.125 137.945 13.125C138.491 13.125 138.926 13.009 139.247 12.777C139.572 12.5417 139.734 12.2599 139.734 11.9318C139.734 11.6667 139.641 11.4446 139.456 11.2656C139.27 11.0833 138.985 10.9474 138.601 10.858L137.328 10.5597C136.629 10.3939 136.115 10.1371 135.787 9.78906C135.462 9.43774 135.3 8.99858 135.3 8.47159C135.3 8.04072 135.421 7.65956 135.663 7.32812C135.908 6.99669 136.241 6.73651 136.662 6.54758C137.086 6.35866 137.567 6.2642 138.104 6.2642C138.859 6.2642 139.453 6.42992 139.883 6.76136C140.318 7.0928 140.626 7.5303 140.808 8.07386Z" fill="white"/>
<path d="M199.562 14V3.81818H200.795V12.9062H205.528V14H199.562ZM207.278 14V6.36364H208.451V14H207.278ZM207.875 5.09091C207.646 5.09091 207.449 5.01302 207.283 4.85724C207.121 4.70147 207.039 4.5142 207.039 4.29545C207.039 4.0767 207.121 3.88944 207.283 3.73366C207.449 3.57789 207.646 3.5 207.875 3.5C208.103 3.5 208.299 3.57789 208.461 3.73366C208.627 3.88944 208.71 4.0767 208.71 4.29545C208.71 4.5142 208.627 4.70147 208.461 4.85724C208.299 5.01302 208.103 5.09091 207.875 5.09091ZM211.694 11.2159L211.674 9.7642H211.913L215.254 6.36364H216.705L213.146 9.96307H213.046L211.694 11.2159ZM210.6 14V3.81818H211.774V14H210.6ZM215.453 14L212.47 10.2216L213.305 9.40625L216.944 14H215.453ZM221.103 14.1591C220.367 14.1591 219.732 13.9967 219.199 13.6719C218.668 13.3438 218.259 12.8864 217.971 12.2997C217.686 11.7098 217.543 11.0237 217.543 10.2415C217.543 9.45928 217.686 8.76989 217.971 8.1733C218.259 7.57339 218.66 7.10606 219.174 6.77131C219.691 6.43324 220.294 6.2642 220.983 6.2642C221.381 6.2642 221.774 6.33049 222.162 6.46307C222.549 6.59564 222.902 6.81108 223.221 7.10938C223.539 7.40436 223.792 7.79545 223.981 8.28267C224.17 8.76989 224.265 9.36979 224.265 10.0824V10.5795H218.378V9.56534H223.071C223.071 9.13447 222.985 8.75 222.813 8.41193C222.644 8.07386 222.402 7.80705 222.087 7.61151C221.776 7.41596 221.408 7.31818 220.983 7.31818C220.516 7.31818 220.112 7.43419 219.77 7.66619C219.432 7.89489 219.172 8.19318 218.99 8.56108C218.807 8.92898 218.716 9.32339 218.716 9.74432V10.4205C218.716 10.9972 218.816 11.486 219.015 11.8871C219.217 12.2848 219.497 12.5881 219.855 12.7969C220.213 13.0024 220.629 13.1051 221.103 13.1051C221.411 13.1051 221.689 13.062 221.938 12.9759C222.19 12.8864 222.407 12.7538 222.589 12.5781C222.772 12.3991 222.912 12.1771 223.012 11.9119L224.145 12.2301C224.026 12.6146 223.825 12.9527 223.544 13.2443C223.262 13.5327 222.914 13.758 222.5 13.9205C222.085 14.0795 221.62 14.1591 221.103 14.1591ZM228.933 14.1591C228.297 14.1591 227.735 13.9983 227.248 13.6768C226.76 13.352 226.379 12.8946 226.104 12.3047C225.829 11.7114 225.691 11.0104 225.691 10.2017C225.691 9.39962 225.829 8.7036 226.104 8.11364C226.379 7.52367 226.762 7.06794 227.253 6.74645C227.743 6.42495 228.31 6.2642 228.953 6.2642C229.45 6.2642 229.843 6.34706 230.131 6.51278C230.423 6.67519 230.645 6.8608 230.797 7.0696C230.953 7.27509 231.074 7.44413 231.16 7.5767H231.26V3.81818H232.433V14H231.299V12.8267H231.16C231.074 12.9659 230.951 13.1416 230.792 13.3537C230.633 13.5625 230.406 13.7498 230.111 13.9155C229.816 14.0779 229.424 14.1591 228.933 14.1591ZM229.092 13.1051C229.563 13.1051 229.96 12.9825 230.285 12.7372C230.61 12.4886 230.857 12.1456 231.026 11.7081C231.195 11.2673 231.28 10.7585 231.28 10.1818C231.28 9.61174 231.197 9.11293 231.031 8.68537C230.865 8.2545 230.62 7.91974 230.295 7.68111C229.97 7.43916 229.569 7.31818 229.092 7.31818C228.595 7.31818 228.181 7.44579 227.849 7.70099C227.521 7.95289 227.274 8.29593 227.108 8.73011C226.946 9.16098 226.865 9.64489 226.865 10.1818C226.865 10.7254 226.948 11.2192 227.113 11.6634C227.282 12.1042 227.531 12.4555 227.859 12.7173C228.191 12.9759 228.602 13.1051 229.092 13.1051Z" fill="white"/>
<path d="M290.807 4.91193V3.81818H298.443V4.91193H295.242V14H294.009V4.91193H290.807ZM301.395 14.179C300.911 14.179 300.472 14.0878 300.078 13.9055C299.683 13.7199 299.37 13.4531 299.138 13.1051C298.906 12.7538 298.79 12.3295 298.79 11.8324C298.79 11.3949 298.876 11.0402 299.049 10.7685C299.221 10.4934 299.451 10.2779 299.74 10.1222C300.028 9.96638 300.346 9.85038 300.694 9.77415C301.046 9.6946 301.399 9.63163 301.753 9.58523C302.217 9.52557 302.593 9.48082 302.882 9.45099C303.173 9.41785 303.386 9.36316 303.518 9.28693C303.654 9.2107 303.722 9.07812 303.722 8.8892V8.84943C303.722 8.3589 303.588 7.97775 303.319 7.70597C303.054 7.43419 302.651 7.2983 302.111 7.2983C301.551 7.2983 301.112 7.42093 300.794 7.66619C300.475 7.91146 300.252 8.1733 300.123 8.4517L299.009 8.05398C299.208 7.58996 299.473 7.22869 299.804 6.97017C300.139 6.70833 300.504 6.52604 300.898 6.4233C301.296 6.31723 301.687 6.2642 302.071 6.2642C302.317 6.2642 302.598 6.29403 302.917 6.35369C303.238 6.41004 303.548 6.5277 303.846 6.70668C304.148 6.88565 304.398 7.15578 304.597 7.51705C304.796 7.87831 304.895 8.36222 304.895 8.96875V14H303.722V12.9659H303.662C303.583 13.1316 303.45 13.3089 303.265 13.4979C303.079 13.6868 302.832 13.8475 302.524 13.9801C302.216 14.1127 301.839 14.179 301.395 14.179ZM301.574 13.125C302.038 13.125 302.429 13.0339 302.748 12.8516C303.069 12.6693 303.311 12.4339 303.473 12.1456C303.639 11.8572 303.722 11.554 303.722 11.2358V10.1619C303.672 10.2216 303.563 10.2763 303.394 10.326C303.228 10.3724 303.036 10.4138 302.817 10.4503C302.602 10.4834 302.391 10.5133 302.186 10.5398C301.984 10.563 301.819 10.5829 301.694 10.5994C301.389 10.6392 301.104 10.7038 300.838 10.7933C300.577 10.8795 300.364 11.0104 300.202 11.1861C300.043 11.3584 299.963 11.5937 299.963 11.892C299.963 12.2997 300.114 12.608 300.416 12.8168C300.721 13.0223 301.107 13.125 301.574 13.125ZM310.119 17.0227C309.552 17.0227 309.065 16.9498 308.657 16.804C308.25 16.6615 307.91 16.4725 307.638 16.2372C307.37 16.0052 307.156 15.7566 306.997 15.4915L307.932 14.8352C308.038 14.9744 308.172 15.1335 308.334 15.3125C308.497 15.4948 308.719 15.6522 309.001 15.7848C309.286 15.9207 309.658 15.9886 310.119 15.9886C310.736 15.9886 311.244 15.8395 311.645 15.5412C312.046 15.2429 312.247 14.7756 312.247 14.1392V12.5881H312.148C312.061 12.7273 311.939 12.8996 311.78 13.1051C311.624 13.3073 311.398 13.4879 311.104 13.647C310.812 13.8028 310.417 13.8807 309.92 13.8807C309.304 13.8807 308.75 13.7348 308.26 13.4432C307.773 13.1515 307.386 12.7273 307.101 12.1705C306.82 11.6136 306.679 10.9375 306.679 10.142C306.679 9.35985 306.816 8.67874 307.091 8.09872C307.367 7.51539 307.749 7.06463 308.24 6.74645C308.73 6.42495 309.297 6.2642 309.94 6.2642C310.437 6.2642 310.832 6.34706 311.123 6.51278C311.418 6.67519 311.644 6.8608 311.8 7.0696C311.959 7.27509 312.081 7.44413 312.167 7.5767H312.287V6.36364H313.42V14.2188C313.42 14.875 313.271 15.4086 312.973 15.8196C312.678 16.2339 312.28 16.5372 311.78 16.7294C311.282 16.925 310.729 17.0227 310.119 17.0227ZM310.079 12.8267C310.55 12.8267 310.948 12.719 311.273 12.5036C311.597 12.2881 311.844 11.9782 312.013 11.5739C312.182 11.1695 312.267 10.6856 312.267 10.1222C312.267 9.57197 312.184 9.08641 312.018 8.66548C311.853 8.24455 311.607 7.91477 311.282 7.67614C310.958 7.4375 310.557 7.31818 310.079 7.31818C309.582 7.31818 309.168 7.44413 308.836 7.69602C308.508 7.94792 308.261 8.28598 308.096 8.71023C307.933 9.13447 307.852 9.60511 307.852 10.1222C307.852 10.6525 307.935 11.1214 308.101 11.5291C308.27 11.9335 308.518 12.2517 308.846 12.4837C309.178 12.7124 309.589 12.8267 310.079 12.8267ZM318.65 17.0227C318.084 17.0227 317.596 16.9498 317.189 16.804C316.781 16.6615 316.441 16.4725 316.17 16.2372C315.901 16.0052 315.687 15.7566 315.528 15.4915L316.463 14.8352C316.569 14.9744 316.703 15.1335 316.866 15.3125C317.028 15.4948 317.25 15.6522 317.532 15.7848C317.817 15.9207 318.19 15.9886 318.65 15.9886C319.267 15.9886 319.776 15.8395 320.177 15.5412C320.578 15.2429 320.778 14.7756 320.778 14.1392V12.5881H320.679C320.593 12.7273 320.47 12.8996 320.311 13.1051C320.155 13.3073 319.93 13.4879 319.635 13.647C319.343 13.8028 318.949 13.8807 318.452 13.8807C317.835 13.8807 317.282 13.7348 316.791 13.4432C316.304 13.1515 315.918 12.7273 315.633 12.1705C315.351 11.6136 315.21 10.9375 315.21 10.142C315.21 9.35985 315.348 8.67874 315.623 8.09872C315.898 7.51539 316.281 7.06463 316.771 6.74645C317.262 6.42495 317.828 6.2642 318.471 6.2642C318.969 6.2642 319.363 6.34706 319.655 6.51278C319.95 6.67519 320.175 6.8608 320.331 7.0696C320.49 7.27509 320.613 7.44413 320.699 7.5767H320.818V6.36364H321.952V14.2188C321.952 14.875 321.802 15.4086 321.504 15.8196C321.209 16.2339 320.811 16.5372 320.311 16.7294C319.814 16.925 319.26 17.0227 318.65 17.0227ZM318.611 12.8267C319.081 12.8267 319.479 12.719 319.804 12.5036C320.129 12.2881 320.376 11.9782 320.545 11.5739C320.714 11.1695 320.798 10.6856 320.798 10.1222C320.798 9.57197 320.715 9.08641 320.55 8.66548C320.384 8.24455 320.139 7.91477 319.814 7.67614C319.489 7.4375 319.088 7.31818 318.611 7.31818C318.113 7.31818 317.699 7.44413 317.368 7.69602C317.04 7.94792 316.793 8.28598 316.627 8.71023C316.465 9.13447 316.383 9.60511 316.383 10.1222C316.383 10.6525 316.466 11.1214 316.632 11.5291C316.801 11.9335 317.05 12.2517 317.378 12.4837C317.709 12.7124 318.12 12.8267 318.611 12.8267ZM327.301 14.1591C326.565 14.1591 325.93 13.9967 325.397 13.6719C324.867 13.3438 324.457 12.8864 324.169 12.2997C323.884 11.7098 323.741 11.0237 323.741 10.2415C323.741 9.45928 323.884 8.76989 324.169 8.1733C324.457 7.57339 324.858 7.10606 325.372 6.77131C325.889 6.43324 326.492 6.2642 327.182 6.2642C327.579 6.2642 327.972 6.33049 328.36 6.46307C328.748 6.59564 329.101 6.81108 329.419 7.10938C329.737 7.40436 329.991 7.79545 330.18 8.28267C330.368 8.76989 330.463 9.36979 330.463 10.0824V10.5795H324.577V9.56534H329.27C329.27 9.13447 329.184 8.75 329.011 8.41193C328.842 8.07386 328.6 7.80705 328.285 7.61151C327.974 7.41596 327.606 7.31818 327.182 7.31818C326.714 7.31818 326.31 7.43419 325.969 7.66619C325.631 7.89489 325.37 8.19318 325.188 8.56108C325.006 8.92898 324.915 9.32339 324.915 9.74432V10.4205C324.915 10.9972 325.014 11.486 325.213 11.8871C325.415 12.2848 325.695 12.5881 326.053 12.7969C326.411 13.0024 326.827 13.1051 327.301 13.1051C327.609 13.1051 327.888 13.062 328.136 12.9759C328.388 12.8864 328.605 12.7538 328.787 12.5781C328.97 12.3991 329.111 12.1771 329.21 11.9119L330.344 12.2301C330.224 12.6146 330.024 12.9527 329.742 13.2443C329.46 13.5327 329.112 13.758 328.698 13.9205C328.284 14.0795 327.818 14.1591 327.301 14.1591ZM335.131 14.1591C334.495 14.1591 333.933 13.9983 333.446 13.6768C332.959 13.352 332.577 12.8946 332.302 12.3047C332.027 11.7114 331.89 11.0104 331.89 10.2017C331.89 9.39962 332.027 8.7036 332.302 8.11364C332.577 7.52367 332.96 7.06794 333.451 6.74645C333.941 6.42495 334.508 6.2642 335.151 6.2642C335.648 6.2642 336.041 6.34706 336.329 6.51278C336.621 6.67519 336.843 6.8608 336.996 7.0696C337.151 7.27509 337.272 7.44413 337.358 7.5767H337.458V3.81818H338.631V14H337.498V12.8267H337.358C337.272 12.9659 337.15 13.1416 336.991 13.3537C336.831 13.5625 336.604 13.7498 336.309 13.9155C336.015 14.0779 335.622 14.1591 335.131 14.1591ZM335.29 13.1051C335.761 13.1051 336.159 12.9825 336.483 12.7372C336.808 12.4886 337.055 12.1456 337.224 11.7081C337.393 11.2673 337.478 10.7585 337.478 10.1818C337.478 9.61174 337.395 9.11293 337.229 8.68537C337.064 8.2545 336.818 7.91974 336.493 7.68111C336.169 7.43916 335.768 7.31818 335.29 7.31818C334.793 7.31818 334.379 7.44579 334.047 7.70099C333.719 7.95289 333.472 8.29593 333.307 8.73011C333.144 9.16098 333.063 9.64489 333.063 10.1818C333.063 10.7254 333.146 11.2192 333.312 11.6634C333.481 12.1042 333.729 12.4555 334.057 12.7173C334.389 12.9759 334.8 13.1051 335.29 13.1051Z" fill="white"/>
<line x1="0.5" y1="28.5" x2="346.5" y2="28.5" stroke="#323436" stroke-linecap="round"/>
<line x1="2" y1="27" x2="41" y2="27" stroke="#FFC91B" stroke-width="4" stroke-linecap="round"/>
</svg>
